<svg width="13" height="14" viewBox="0 0 13 14" fill="none" xmlns="http://www.w3.org/2000/svg">
<g clip-path="url(#clip0)">
<path d="M11.0859 5.68079L11.679 6.24614C11.9301 6.48553 11.929 6.87147 11.6765 7.10688L6.45806 12.028C6.20559 12.266 5.79845 12.2648 5.55002 12.0254L0.359584 7.0773C0.108476 6.83792 0.109571 6.45198 0.362027 6.21656L0.958267 5.65458C1.21341 5.41409 1.62858 5.42035 1.87698 5.66735L4.94062 8.73308L4.96133 1.43585C4.96229 1.09816 5.24966 0.827292 5.60591 0.828303L6.46305 0.830736C6.8193 0.831747 7.10513 1.10424 7.10418 1.44193L7.08346 8.73916L10.1671 5.68834C10.4169 5.44022 10.8321 5.43632 11.0859 5.68079Z" fill="#4F4F4F"/>
</g>
<defs>
<clipPath id="clip0">
<rect width="12" height="13" fill="white" transform="translate(12 13.034) rotate(-179.837)"/>
</clipPath>
</defs>
</svg>
