<svg width="12" height="12" viewBox="0 0 12 12" fill="none" xmlns="http://www.w3.org/2000/svg">
<path d="M0.780708 6.52494L0.187608 5.95959C-0.0634915 5.7202 -0.062392 5.33426 0.190108 5.09885L5.40855 0.177728C5.66102 -0.0602716 6.06816 -0.0590719 6.31659 0.180328L11.507 5.12843C11.7581 5.36781 11.757 5.75375 11.5046 5.98917L10.9083 6.55115C10.6532 6.79164 10.238 6.78538 9.98963 6.53838L6.92599 3.47265L6.90528 10.7699C6.90432 11.1076 6.61695 11.3784 6.2607 11.3774L5.40356 11.375C5.04731 11.374 4.76148 11.1015 4.76243 10.7638L4.78315 3.46657L1.69951 6.51739C1.44971 6.76551 1.03451 6.76941 0.780708 6.52494Z" fill="#4F4F4F"/>
</svg>
