<svg width="22" height="24" viewBox="0 0 22 24" fill="none" xmlns="http://www.w3.org/2000/svg">
<path d="M0.785714 6.1875H21.2143C21.6482 6.1875 22 5.85173 22 5.4375V3.5625C22 3.14827 21.6482 2.8125 21.2143 2.8125H0.785714C0.351754 2.8125 0 3.14827 0 3.5625V5.4375C0 5.85173 0.351754 6.1875 0.785714 6.1875ZM0.785714 13.6875H21.2143C21.6482 13.6875 22 13.3517 22 12.9375V11.0625C22 10.6483 21.6482 10.3125 21.2143 10.3125H0.785714C0.351754 10.3125 0 10.6483 0 11.0625V12.9375C0 13.3517 0.351754 13.6875 0.785714 13.6875ZM0.785714 21.1875H21.2143C21.6482 21.1875 22 20.8517 22 20.4375V18.5625C22 18.1483 21.6482 17.8125 21.2143 17.8125H0.785714C0.351754 17.8125 0 18.1483 0 18.5625V20.4375C0 20.8517 0.351754 21.1875 0.785714 21.1875Z" fill="#333333"/>
</svg>
