<svg width="12" height="14" viewBox="0 0 12 14" fill="none" xmlns="http://www.w3.org/2000/svg">
<g clip-path="url(#clip0)">
<path d="M0 11.8636C0 12.5412 0.575893 13.0909 1.28571 13.0909H10.7143C11.4241 13.0909 12 12.5412 12 11.8636V4.90909H0V11.8636ZM8.57143 6.85227C8.57143 6.68352 8.71607 6.54545 8.89286 6.54545H9.96429C10.1411 6.54545 10.2857 6.68352 10.2857 6.85227V7.875C10.2857 8.04375 10.1411 8.18182 9.96429 8.18182H8.89286C8.71607 8.18182 8.57143 8.04375 8.57143 7.875V6.85227ZM8.57143 10.125C8.57143 9.95625 8.71607 9.81818 8.89286 9.81818H9.96429C10.1411 9.81818 10.2857 9.95625 10.2857 10.125V11.1477C10.2857 11.3165 10.1411 11.4545 9.96429 11.4545H8.89286C8.71607 11.4545 8.57143 11.3165 8.57143 11.1477V10.125ZM5.14286 6.85227C5.14286 6.68352 5.2875 6.54545 5.46429 6.54545H6.53571C6.7125 6.54545 6.85714 6.68352 6.85714 6.85227V7.875C6.85714 8.04375 6.7125 8.18182 6.53571 8.18182H5.46429C5.2875 8.18182 5.14286 8.04375 5.14286 7.875V6.85227ZM5.14286 10.125C5.14286 9.95625 5.2875 9.81818 5.46429 9.81818H6.53571C6.7125 9.81818 6.85714 9.95625 6.85714 10.125V11.1477C6.85714 11.3165 6.7125 11.4545 6.53571 11.4545H5.46429C5.2875 11.4545 5.14286 11.3165 5.14286 11.1477V10.125ZM1.71429 6.85227C1.71429 6.68352 1.85893 6.54545 2.03571 6.54545H3.10714C3.28393 6.54545 3.42857 6.68352 3.42857 6.85227V7.875C3.42857 8.04375 3.28393 8.18182 3.10714 8.18182H2.03571C1.85893 8.18182 1.71429 8.04375 1.71429 7.875V6.85227ZM1.71429 10.125C1.71429 9.95625 1.85893 9.81818 2.03571 9.81818H3.10714C3.28393 9.81818 3.42857 9.95625 3.42857 10.125V11.1477C3.42857 11.3165 3.28393 11.4545 3.10714 11.4545H2.03571C1.85893 11.4545 1.71429 11.3165 1.71429 11.1477V10.125ZM10.7143 1.63636H9.42857V0.409091C9.42857 0.184091 9.23571 0 9 0H8.14286C7.90714 0 7.71429 0.184091 7.71429 0.409091V1.63636H4.28571V0.409091C4.28571 0.184091 4.09286 0 3.85714 0H3C2.76429 0 2.57143 0.184091 2.57143 0.409091V1.63636H1.28571C0.575893 1.63636 0 2.18608 0 2.86364V4.09091H12V2.86364C12 2.18608 11.4241 1.63636 10.7143 1.63636Z" fill="#4F4F4F"/>
</g>
<defs>
<clipPath id="clip0">
<rect width="12" height="13.0909" fill="white"/>
</clipPath>
</defs>
</svg>
