<svg width="12" height="17" viewBox="0 0 12 17" fill="none" xmlns="http://www.w3.org/2000/svg">
<g clip-path="url(#clip0)">
<path d="M8.27455 8.25L11.686 5.02509C12.1047 4.62935 12.1047 3.98771 11.686 3.59165L10.9278 2.87493C10.5092 2.47919 9.83045 2.47919 9.41148 2.87493L6 6.09984L2.58852 2.87493C2.16989 2.47919 1.49114 2.47919 1.07216 2.87493L0.313977 3.59165C-0.104659 3.98739 -0.104659 4.62902 0.313977 5.02509L3.72545 8.25L0.313977 11.4749C-0.104659 11.8707 -0.104659 12.5123 0.313977 12.9083L1.07216 13.6251C1.4908 14.0208 2.16989 14.0208 2.58852 13.6251L6 10.4002L9.41148 13.6251C9.83011 14.0208 10.5092 14.0208 10.9278 13.6251L11.686 12.9083C12.1047 12.5126 12.1047 11.871 11.686 11.4749L8.27455 8.25Z" fill="#4F4F4F"/>
</g>
<defs>
<clipPath id="clip0">
<rect width="12" height="16.5" fill="white"/>
</clipPath>
</defs>
</svg>
