<svg width="22" height="24" viewBox="0 0 22 24" fill="none" xmlns="http://www.w3.org/2000/svg">
<path d="M3.18056 16.0428L3.26755 15.6602L3.00279 15.3705C1.58674 13.8214 0.75 11.8697 0.75 9.75C0.75 4.86078 5.2508 0.75 11 0.75C16.7492 0.75 21.25 4.86078 21.25 9.75C21.25 14.6392 16.7492 18.75 11 18.75C9.45152 18.75 7.98826 18.4378 6.66987 17.8968L6.24212 17.7212L5.89315 18.0246C5.00338 18.7979 3.34766 19.9591 1.16925 20.2037C1.33105 19.9803 1.5183 19.7083 1.71327 19.3985C2.2536 18.54 2.8854 17.3411 3.18056 16.0428ZM0.658385 20.8616C0.660785 20.8588 0.663479 20.8557 0.666461 20.8522C0.66386 20.8554 0.661192 20.8585 0.658458 20.8616L0.658385 20.8616Z" stroke="#4F4F4F" stroke-width="1.5"/>
</svg>
