<svg width="22" height="24" viewBox="0 0 22 24" fill="none" xmlns="http://www.w3.org/2000/svg">
<g clip-path="url(#clip0)">
<path d="M12.4069 2.57192L12.4072 2.57155C14.3292 0.408107 17.3498 0.122365 19.3536 1.98504C21.7457 4.21248 21.8808 8.25606 19.7249 10.6832L19.7247 10.6833L11.4104 20.0488C11.1717 20.3175 10.8243 20.3176 10.5855 20.0489C10.5855 20.0489 10.5854 20.0488 10.5854 20.0488L2.27136 10.6837C0.119162 8.25643 0.25438 4.21246 2.64651 1.98499C4.65063 0.122097 7.67509 0.408593 9.59237 2.571L9.59319 2.57192L10.4397 3.52348L11 4.15341L11.5604 3.52348L12.4069 2.57192Z" stroke="#4F4F4F" stroke-width="1.5"/>
</g>
<defs>
<clipPath id="clip0">
<rect width="22" height="24" fill="white"/>
</clipPath>
</defs>
</svg>
