<svg width="16" height="18" viewBox="0 0 16 18" fill="none" xmlns="http://www.w3.org/2000/svg">
<g clip-path="url(#clip0)">
<path d="M16 8.72728C16 13.3977 12.4193 17.1818 7.99997 17.1818C7.17416 17.1818 6.38061 17.0489 5.63223 16.8034C5.95803 16.2409 6.44513 15.3205 6.62578 14.5875C6.72255 14.1921 7.12255 12.5761 7.12255 12.5761C7.38384 13.1011 8.14513 13.5477 8.95481 13.5477C11.3677 13.5477 13.1064 11.2023 13.1064 8.28751C13.1064 5.49546 10.9484 3.40569 8.17416 3.40569C4.72255 3.40569 2.88707 5.85342 2.88707 8.52273C2.88707 9.76364 3.51287 11.308 4.50965 11.7989C4.66126 11.8739 4.74191 11.8398 4.77739 11.6864C4.8032 11.5705 4.93868 10.9943 4.99997 10.7284C5.01932 10.6432 5.00965 10.5682 4.94513 10.4864C4.61932 10.0602 4.35481 9.28296 4.35481 8.55683C4.35481 6.69205 5.69029 4.88864 7.96771 4.88864C9.93223 4.88864 11.3096 6.30342 11.3096 8.32842C11.3096 10.6159 10.2161 12.2011 8.79352 12.2011C8.00965 12.2011 7.41932 11.5159 7.60965 10.6739C7.83545 9.66819 8.27094 8.5841 8.27094 7.85796C8.27094 7.21024 7.9419 6.66819 7.25803 6.66819C6.45481 6.66819 5.80965 7.54433 5.80965 8.72046C5.80965 9.47046 6.04836 9.97501 6.04836 9.97501C6.04836 9.97501 5.25803 13.5136 5.11287 14.175C4.95158 14.9046 5.0161 15.9341 5.08384 16.6023C2.10965 15.3716 -3.05176e-05 12.3102 -3.05176e-05 8.72728C-3.05176e-05 4.05683 3.58061 0.272736 7.99997 0.272736C12.4193 0.272736 16 4.05683 16 8.72728Z" fill="#989898"/>
</g>
<defs>
<clipPath id="clip0">
<rect width="16" height="17.4545" fill="white"/>
</clipPath>
</defs>
</svg>
