<svg width="24" height="24" viewBox="0 0 24 24" fill="none" xmlns="http://www.w3.org/2000/svg">
<path d="M20.625 10.1562L15.125 4.40626C14.375 3.59376 13 4.12501 13 5.28126V8.03126C7.8125 8.09376 3 9.03126 3 14.375C3 17.3438 4.71875 19.0625 5.78125 19.8125C6.53125 20.375 7.59375 19.6562 7.3125 18.75C6.125 14.5312 8.15625 14.0625 13 14.0312V16.75C13 17.9062 14.375 18.4375 15.125 17.625L20.625 11.875C21.0938 11.4062 21.0938 10.625 20.625 10.1562ZM19.9062 11.1875L14.4062 16.9375C14.25 17.0938 14 17 14 16.75V13C8.625 13 4.75 13.3125 6.375 19C5.25 18.1875 4 16.6875 4 14.375C4 9.37501 9.0625 9.00001 14 9.00001V5.25001C14 5.03126 14.25 4.93751 14.4062 5.09376L19.9062 10.8438C19.9688 10.875 20 10.9688 20 11C20 11.0625 19.9688 11.1562 19.9062 11.1875Z" fill="#4F4F4F"/>
</svg>
