<svg width="16" height="18" viewBox="0 0 16 18" fill="none" xmlns="http://www.w3.org/2000/svg">
<g clip-path="url(#clip0)">
<path d="M14.3553 5.17214C14.3654 5.32718 14.3654 5.48226 14.3654 5.63731C14.3654 10.3664 11.066 15.8154 5.0355 15.8154C3.17763 15.8154 1.45175 15.2284 -3.05176e-05 14.2095C0.263938 14.2427 0.51772 14.2538 0.791845 14.2538C2.32481 14.2538 3.736 13.689 4.86291 12.7255C3.42128 12.6922 2.21316 11.6622 1.79691 10.2446C1.99997 10.2778 2.203 10.3 2.41622 10.3C2.71063 10.3 3.00506 10.2556 3.27916 10.1781C1.77663 9.84587 0.649688 8.4061 0.649688 6.6673V6.62301C1.08622 6.88882 1.59388 7.05494 2.13191 7.07707C1.24866 6.43469 0.670001 5.33826 0.670001 4.09783C0.670001 3.43333 0.832407 2.82419 1.11669 2.29258C2.73091 4.46332 5.15731 5.88092 7.8781 6.036C7.82735 5.7702 7.79688 5.49334 7.79688 5.21646C7.79688 3.24505 9.25881 1.63916 11.0761 1.63916C12.0202 1.63916 12.873 2.07109 13.472 2.76883C14.2131 2.61379 14.9238 2.31474 15.5532 1.90497C15.3095 2.73563 14.7918 3.43336 14.1116 3.87634C14.7715 3.79885 15.4111 3.59946 15.9999 3.3226C15.5533 4.03139 14.9949 4.66265 14.3553 5.17214Z" fill="#989898"/>
</g>
<defs>
<clipPath id="clip0">
<rect width="16" height="17.4545" fill="white"/>
</clipPath>
</defs>
</svg>
