<svg width="16" height="18" viewBox="0 0 16 18" fill="none" xmlns="http://www.w3.org/2000/svg">
<path d="M15.2682 4.23011C15.0937 3.42386 14.5797 2.78888 13.927 2.57339C12.7439 2.18182 8 2.18182 8 2.18182C8 2.18182 3.2561 2.18182 2.07302 2.57339C1.42032 2.78891 0.906268 3.42386 0.731795 4.23011C0.414795 5.69148 0.414795 8.74051 0.414795 8.74051C0.414795 8.74051 0.414795 11.7895 0.731795 13.2509C0.906268 14.0572 1.42032 14.6657 2.07302 14.8812C3.2561 15.2727 8 15.2727 8 15.2727C8 15.2727 12.7439 15.2727 13.927 14.8812C14.5797 14.6657 15.0937 14.0572 15.2682 13.2509C15.5852 11.7895 15.5852 8.74051 15.5852 8.74051C15.5852 8.74051 15.5852 5.69148 15.2682 4.23011ZM6.44847 11.5088V5.97222L10.4134 8.74057L6.44847 11.5088Z" fill="#989898"/>
</svg>
