<svg width="408" height="461" viewBox="0 0 408 461" fill="none" xmlns="http://www.w3.org/2000/svg">
<g clip-path="url(#clip0)">
<g opacity="0.2">
<path opacity="0.2" d="M303.066 420.758C302.699 421.442 302.276 422.094 301.8 422.708C297.596 419.751 293.32 416.849 288.972 414L289.254 413.442C290.26 411.498 291.766 409.857 293.616 408.688C296.016 407.212 298.722 406.888 300.948 408.088C303.174 409.288 304.416 411.689 304.548 414.492C304.616 416.675 304.105 418.837 303.066 420.758Z" fill="#3F3D56"/>
<path opacity="0.2" d="M308.922 409.769C311.566 404.775 310.619 399.088 306.807 397.068C302.994 395.048 297.76 397.459 295.115 402.453C292.47 407.448 293.417 413.134 297.23 415.154C301.042 417.174 306.277 414.763 308.922 409.769Z" fill="#3F3D56"/>
<path opacity="0.2" d="M314.775 398.718C317.419 393.723 316.473 388.037 312.66 386.017C308.847 383.997 303.613 386.408 300.968 391.402C298.323 396.396 299.27 402.082 303.083 404.103C306.896 406.123 312.13 403.712 314.775 398.718Z" fill="#3F3D56"/>
<path opacity="0.2" d="M320.628 387.666C323.273 382.672 322.326 376.986 318.513 374.966C314.7 372.945 309.466 375.356 306.821 380.351C304.177 385.345 305.123 391.031 308.936 393.051C312.749 395.071 317.983 392.66 320.628 387.666Z" fill="#3F3D56"/>
<path opacity="0.2" d="M326.475 376.621C329.12 371.627 328.173 365.94 324.36 363.92C320.547 361.9 315.313 364.311 312.668 369.305C310.024 374.299 310.97 379.986 314.783 382.006C318.596 384.026 323.83 381.615 326.475 376.621Z" fill="#3F3D56"/>
<path opacity="0.2" d="M333.75 283.616C333.43 281.916 333.229 280.195 333.15 278.467L352.902 285.117L333.204 274.865C333.49 269.772 334.812 264.79 337.09 260.225C339.368 255.661 342.554 251.609 346.452 248.319L365.538 275.928L350.718 245.222C355.073 242.496 359.943 240.695 365.025 239.934C370.106 239.172 375.29 239.465 380.253 240.795C385.216 242.124 389.852 244.462 393.873 247.662C397.893 250.863 401.212 254.857 403.622 259.396C406.032 263.935 407.481 268.922 407.88 274.046C408.279 279.17 407.619 284.322 405.941 289.18C404.263 294.037 401.603 298.497 398.126 302.282C394.65 306.066 390.431 309.094 385.734 311.176C386.222 313.826 386.424 316.52 386.334 319.213L356.334 318.973L385.902 323.846C384.902 329.988 382.388 335.784 378.586 340.709C374.784 345.634 369.815 349.534 364.128 352.055C365.381 358.967 364.664 366.092 362.06 372.616C359.455 379.139 355.068 384.799 349.4 388.946C343.732 393.093 337.012 395.562 330.008 396.069C323.004 396.576 315.998 395.101 309.792 391.814C303.586 388.526 298.43 383.558 294.914 377.477C291.397 371.397 289.662 364.449 289.907 357.429C290.152 350.408 292.366 343.598 296.298 337.778C300.229 331.957 305.718 327.36 312.138 324.513C310.643 316.253 311.965 307.73 315.893 300.313C319.821 292.895 326.127 287.013 333.798 283.61L333.75 283.616Z" fill="#FF962B"/>
<path opacity="0.1" d="M381.984 335.358C378.066 342.783 371.757 348.668 364.08 352.061C365.333 358.973 364.616 366.098 362.012 372.622C359.407 379.145 355.02 384.805 349.352 388.952C343.684 393.099 336.964 395.568 329.96 396.075C322.956 396.582 315.95 395.107 309.744 391.82C303.538 388.532 298.382 383.564 294.866 377.483C291.349 371.403 289.614 364.455 289.859 357.435C290.104 350.414 292.318 343.604 296.25 337.783C300.181 331.963 305.67 327.366 312.09 324.519C310.638 316.542 383.952 331.643 381.984 335.358Z" fill="black"/>
</g>
<g opacity="0.2">
<path opacity="0.2" d="M130.2 373.145C130.556 374.594 131.035 376.01 131.634 377.377C140.878 373.836 150.228 370.435 159.684 367.174C159.6 366.789 159.516 366.393 159.42 365.973C158.46 361.869 156.424 358.094 153.522 355.038C149.748 351.149 144.852 349.252 140.142 350.404C135.432 351.557 131.964 355.488 130.398 360.662C129.219 364.731 129.151 369.041 130.2 373.145Z" fill="#3F3D56"/>
<path opacity="0.2" d="M143.792 365.285C151.863 363.314 156.315 353.151 153.736 342.586C151.157 332.021 142.525 325.054 134.454 327.025C126.384 328.995 121.932 339.158 124.51 349.723C127.089 360.289 135.722 367.256 143.792 365.285Z" fill="#3F3D56"/>
<path opacity="0.2" d="M138.079 341.9C146.15 339.929 150.602 329.767 148.023 319.201C145.444 308.636 136.812 301.669 128.741 303.64C120.671 305.611 116.219 315.773 118.797 326.339C121.376 336.904 130.009 343.871 138.079 341.9Z" fill="#3F3D56"/>
<path opacity="0.2" d="M132.374 318.515C140.444 316.544 144.896 306.382 142.318 295.817C139.739 285.251 131.106 278.284 123.036 280.255C114.965 282.226 110.513 292.389 113.092 302.954C115.671 313.519 124.303 320.486 132.374 318.515Z" fill="#3F3D56"/>
<path opacity="0.2" d="M126.668 295.137C134.739 293.166 139.191 283.003 136.612 272.438C134.034 261.873 125.401 254.905 117.33 256.876C109.26 258.847 104.808 269.01 107.387 279.575C109.965 290.14 118.598 297.108 126.668 295.137Z" fill="#3F3D56"/>
<path opacity="0.2" d="M137.628 102.661C139.007 99.6335 140.171 96.5129 141.114 93.3224L101.184 96.3893L142.8 86.5403C144.669 76.8958 144.552 66.9712 142.454 57.3738C140.357 47.7763 136.324 38.7079 130.602 30.7233L81.93 73.2523L124.086 22.939C117.242 15.8029 109.002 10.1523 99.881 6.33881C90.7595 2.52533 80.9509 0.630616 71.0658 0.772578C61.1807 0.914541 51.4306 3.09015 42.4222 7.16399C33.4139 11.2378 25.3402 17.1227 18.7036 24.4524C12.067 31.7821 7.00959 40.3996 3.84606 49.7688C0.682519 59.138 -0.519391 69.0582 0.315106 78.912C1.1496 88.7659 4.00266 98.3425 8.6967 107.046C13.3908 115.749 19.8253 123.393 27.6 129.501C25.4505 134.216 23.819 139.151 22.734 144.218L78.888 157.95L21.408 153.077C20.3633 165.025 22.3148 177.046 27.086 188.05C31.8571 199.054 39.297 208.693 48.732 216.096C43.1315 228.405 41.1066 242.041 42.8888 255.447C44.671 268.853 50.1884 281.487 58.81 291.904C67.4317 302.321 78.8097 310.101 91.6433 314.354C104.477 318.608 118.248 319.163 131.382 315.957C144.516 312.751 156.484 305.912 165.916 296.223C175.348 286.534 181.864 274.386 184.719 261.167C187.574 247.948 186.654 234.193 182.062 221.473C177.47 208.753 169.393 197.582 158.754 189.237C165.448 174.527 167.004 157.993 163.172 142.291C159.341 126.59 150.344 112.632 137.628 102.661Z" fill="#FF962B"/>
<path opacity="0.1" d="M23.196 176.448C27.0042 192.152 36.0022 206.11 48.732 216.06C43.1316 228.369 41.1067 242.005 42.8889 255.411C44.6711 268.817 50.1884 281.451 58.8101 291.868C67.4318 302.285 78.8098 310.065 91.6433 314.318C104.477 318.572 118.248 319.127 131.382 315.921C144.516 312.715 156.484 305.876 165.916 296.187C175.348 286.498 181.864 274.35 184.719 261.131C187.575 247.912 186.654 234.157 182.062 221.437C177.47 208.717 169.393 197.546 158.754 189.201C165.228 175.013 21.276 168.591 23.196 176.448Z" fill="black"/>
</g>
<path d="M336 101.017H334.662V28.8388C334.662 12.9219 321.564 0.030014 305.406 0.030014H141.528C125.37 0.030014 112.272 12.9339 112.272 28.8388V58.7579H112.17H111.882C111.429 58.7547 110.994 58.931 110.671 59.2482C110.349 59.5655 110.165 59.9977 110.16 60.4504V74.8547C110.165 75.3074 110.349 75.7396 110.671 76.0569C110.994 76.3741 111.429 76.5505 111.882 76.5473H112.2H112.302V91.2577H111.774C111.55 91.2561 111.328 91.2987 111.121 91.3829C110.914 91.4671 110.725 91.5913 110.566 91.7485C110.406 91.9056 110.279 92.0927 110.192 92.2989C110.105 92.5051 110.06 92.7264 110.058 92.9502V120.493C110.061 120.945 110.244 121.378 110.565 121.696C110.887 122.015 111.322 122.193 111.774 122.191H112.302V132.994H111.846C111.622 132.992 111.399 133.034 111.191 133.118C110.983 133.202 110.794 133.326 110.634 133.483C110.474 133.64 110.346 133.828 110.259 134.034C110.171 134.241 110.126 134.463 110.124 134.687V162.499C110.126 162.724 110.171 162.946 110.259 163.152C110.346 163.359 110.474 163.546 110.634 163.703C110.794 163.861 110.983 163.985 111.191 164.068C111.399 164.152 111.622 164.194 111.846 164.192H112.302V416.497C112.302 432.413 125.4 445.305 141.558 445.305H305.4C321.558 445.305 334.656 432.401 334.656 416.497V154.997H336C336.452 155 336.888 154.824 337.211 154.507C337.533 154.189 337.717 153.757 337.722 153.305V102.709C337.717 102.257 337.533 101.824 337.211 101.507C336.888 101.19 336.452 101.013 336 101.017Z" fill="url(#paint0_linear)"/>
<g opacity="0.9">
<path opacity="0.9" d="M333.396 102.787H329.682C328.923 102.787 328.308 103.403 328.308 104.162V154.721C328.308 155.48 328.923 156.095 329.682 156.095H333.396C334.155 156.095 334.77 155.48 334.77 154.721V104.162C334.77 103.403 334.155 102.787 333.396 102.787Z" fill="#E5E7EB"/>
<path opacity="0.9" d="M115.686 61.0265H114.804C114.045 61.0265 113.43 61.6419 113.43 62.401V77.2015C113.43 77.9605 114.045 78.5759 114.804 78.5759H115.686C116.445 78.5759 117.06 77.9605 117.06 77.2015V62.401C117.06 61.6419 116.445 61.0265 115.686 61.0265Z" fill="#E5E7EB"/>
<path opacity="0.9" d="M116.016 93.1543H114.672C113.913 93.1543 113.298 93.7696 113.298 94.5287V122.323C113.298 123.082 113.913 123.698 114.672 123.698H116.016C116.775 123.698 117.39 123.082 117.39 122.323V94.5287C117.39 93.7696 116.775 93.1543 116.016 93.1543Z" fill="#E5E7EB"/>
<path opacity="0.9" d="M115.884 134.387H114.738C113.979 134.387 113.364 135.002 113.364 135.761V163.82C113.364 164.579 113.979 165.194 114.738 165.194H115.884C116.643 165.194 117.258 164.579 117.258 163.82V135.761C117.258 135.002 116.643 134.387 115.884 134.387Z" fill="#E5E7EB"/>
<path opacity="0.9" d="M308.4 3.03091H138.876C125.956 3.03091 115.482 13.5079 115.482 26.432V419.389C115.482 432.313 125.956 442.79 138.876 442.79H308.4C321.32 442.79 331.794 432.313 331.794 419.389V26.432C331.794 13.5079 321.32 3.03091 308.4 3.03091Z" fill="white"/>
<path opacity="0.9" d="M230.664 16.1629H205.098C203.816 16.1629 202.776 17.2028 202.776 18.4856V19.9741C202.776 21.2569 203.816 22.2968 205.098 22.2968H230.664C231.946 22.2968 232.986 21.2569 232.986 19.9741V18.4856C232.986 17.2028 231.946 16.1629 230.664 16.1629Z" fill="#E5E7EB"/>
<path opacity="0.9" d="M241.026 22.7109C242.948 22.7109 244.506 21.1524 244.506 19.2298C244.506 17.3073 242.948 15.7488 241.026 15.7488C239.104 15.7488 237.546 17.3073 237.546 19.2298C237.546 21.1524 239.104 22.7109 241.026 22.7109Z" fill="#E5E7EB"/>
</g>
<path d="M301.26 14.4884H276.498V17.4893C276.496 21.2417 275.005 24.8398 272.352 27.4926C269.699 30.1454 266.101 31.6356 262.35 31.6356H183.402C179.651 31.6356 176.053 30.1454 173.4 27.4926C170.747 24.8398 169.256 21.2417 169.254 17.4893V14.4884H146.022C141.466 14.4884 137.097 16.2988 133.875 19.5213C130.654 22.7437 128.844 27.1144 128.844 31.6716V414.156C128.844 418.713 130.654 423.084 133.875 426.306C137.097 429.529 141.466 431.339 146.022 431.339H301.26C305.816 431.339 310.185 429.529 313.407 426.306C316.628 423.084 318.438 418.713 318.438 414.156V31.6716C318.438 27.1144 316.628 22.7437 313.407 19.5213C310.185 16.2988 305.816 14.4884 301.26 14.4884Z" fill="#ECECF3"/>
<path d="M52.356 458.071C71.3071 458.071 86.67 455.473 86.67 452.267C86.67 449.062 71.3071 446.464 52.356 446.464C33.4049 446.464 18.042 449.062 18.042 452.267C18.042 455.473 33.4049 458.071 52.356 458.071Z" fill="#FF962B"/>
<path d="M66.546 442.772C68.016 441.404 69.396 439.772 69.816 437.833C70.236 435.894 69.408 433.518 67.53 432.803C65.43 431.999 63.186 433.452 61.488 434.922C59.79 436.393 57.834 438.073 55.608 437.761C56.7578 436.721 57.6175 435.399 58.1024 433.926C58.5873 432.453 58.6809 430.879 58.374 429.358C58.278 428.733 58.0124 428.145 57.606 427.66C56.442 426.412 54.33 426.946 52.932 427.93C48.498 431.051 47.256 437.083 47.232 442.514C46.782 440.552 47.16 438.511 47.148 436.513C47.136 434.514 46.59 432.275 44.898 431.195C43.8404 430.629 42.6526 430.352 41.454 430.391C39.462 430.319 37.254 430.517 35.88 431.975C34.182 433.776 34.626 436.831 36.096 438.829C37.566 440.828 39.81 442.076 41.874 443.457C43.44 444.507 45.03 445.731 45.996 447.394C46.123 447.616 46.2256 447.852 46.302 448.096H58.8C61.6092 446.677 64.2146 444.887 66.546 442.772Z" fill="#FF962B"/>
<g opacity="0.4">
<path opacity="0.4" d="M372.012 423.651C382.828 423.651 391.596 422.167 391.596 420.338C391.596 418.508 382.828 417.025 372.012 417.025C361.196 417.025 352.428 418.508 352.428 420.338C352.428 422.167 361.196 423.651 372.012 423.651Z" fill="#FF962B"/>
<path opacity="0.4" d="M380.106 414.918C380.999 414.19 381.651 413.209 381.978 412.103C382.218 410.981 381.738 409.636 380.67 409.228C379.47 408.772 378.192 409.6 377.22 410.429C376.248 411.257 375.138 412.229 373.866 412.049C374.524 411.455 375.015 410.7 375.292 409.858C375.569 409.016 375.621 408.116 375.444 407.248C375.39 406.891 375.238 406.557 375.006 406.281C374.34 405.567 373.134 405.873 372.342 406.431C369.81 408.232 369.102 411.659 369.084 414.756C368.832 413.64 369.048 412.475 369.042 411.329C369.036 410.183 368.718 408.928 367.752 408.292C367.149 407.971 366.473 407.814 365.79 407.836C364.65 407.794 363.39 407.908 362.604 408.736C361.638 409.774 361.89 411.509 362.73 412.649C363.57 413.79 364.848 414.504 366.03 415.29C366.971 415.854 367.775 416.621 368.382 417.535C368.454 417.662 368.513 417.797 368.556 417.937H375.696C377.296 417.135 378.779 416.119 380.106 414.918Z" fill="#FF962B"/>
</g>
<g opacity="0.4">
<path opacity="0.4" d="M72.0601 386.421C82.876 386.421 91.6441 384.938 91.6441 383.108C91.6441 381.279 82.876 379.795 72.0601 379.795C61.2441 379.795 52.4761 381.279 52.4761 383.108C52.4761 384.938 61.2441 386.421 72.0601 386.421Z" fill="#FF962B"/>
<path opacity="0.4" d="M80.1601 377.689C81.055 376.961 81.7061 375.976 82.0261 374.868C82.2661 373.751 81.7921 372.407 80.7181 371.999C79.5181 371.543 78.2401 372.371 77.2741 373.199C76.3081 374.028 75.1861 375 73.9201 374.82C74.5755 374.224 75.0653 373.469 75.3419 372.627C75.6184 371.786 75.6722 370.887 75.4981 370.018C75.4414 369.661 75.2902 369.325 75.0601 369.046C74.3941 368.338 73.1881 368.644 72.3901 369.202C69.8581 371.003 69.1501 374.424 69.1381 377.521C68.8801 376.404 69.0961 375.24 69.0901 374.094C69.0841 372.947 68.7721 371.693 67.8061 371.093C67.2025 370.767 66.5234 370.608 65.8381 370.631C64.7041 370.589 63.4381 370.703 62.6581 371.537C61.6921 372.575 61.9441 374.31 62.7841 375.45C63.6241 376.59 64.9021 377.299 66.0781 378.091C67.0217 378.651 67.8259 379.419 68.4301 380.335C68.5019 380.464 68.5622 380.598 68.6101 380.738H75.7441C77.3465 379.925 78.8319 378.899 80.1601 377.689Z" fill="#FF962B"/>
</g>
<path d="M174.042 46.244H143.388V76.9074H174.042V46.244Z" fill="#D6D8E0"/>
<path d="M260.886 48.4347H196.662V54.2745H260.886V48.4347Z" fill="#D6D8E0"/>
<path d="M302.484 58.6558H196.662V64.4956H302.484V58.6558Z" fill="#D6D8E0"/>
<path d="M302.484 68.8769H196.662V74.7167H302.484V68.8769Z" fill="#D6D8E0"/>
<path d="M174.276 102.457H143.622V133.12H174.276V102.457Z" fill="#D6D8E0"/>
<path d="M261.12 104.648H196.896V110.488H261.12V104.648Z" fill="#D6D8E0"/>
<path d="M302.718 114.869H196.896V120.709H302.718V114.869Z" fill="#D6D8E0"/>
<path d="M302.718 125.084H196.896V130.924H302.718V125.084Z" fill="#D6D8E0"/>
<path d="M174.51 158.67H143.856V189.333H174.51V158.67Z" fill="#D6D8E0"/>
<path d="M261.36 160.855H197.136V166.695H261.36V160.855Z" fill="#D6D8E0"/>
<path d="M302.958 171.076H197.136V176.916H302.958V171.076Z" fill="#D6D8E0"/>
<path d="M302.958 181.297H197.136V187.137H302.958V181.297Z" fill="#D6D8E0"/>
<path d="M174.744 214.877H144.09V245.541H174.744V214.877Z" fill="#D6D8E0"/>
<path d="M261.594 217.068H197.37V222.908H261.594V217.068Z" fill="#D6D8E0"/>
<path d="M303.192 227.289H197.37V233.129H303.192V227.289Z" fill="#D6D8E0"/>
<path d="M303.192 237.51H197.37V243.35H303.192V237.51Z" fill="#D6D8E0"/>
<path d="M174.984 271.09H144.33V301.754H174.984V271.09Z" fill="#D6D8E0"/>
<path d="M261.828 273.281H197.604V279.121H261.828V273.281Z" fill="#D6D8E0"/>
<path d="M303.426 283.502H197.604V289.342H303.426V283.502Z" fill="#D6D8E0"/>
<path d="M303.426 293.723H197.604V299.563H303.426V293.723Z" fill="#D6D8E0"/>
<path d="M175.218 327.303H144.564V357.967H175.218V327.303Z" fill="#D6D8E0"/>
<path d="M262.062 329.494H197.838V335.334H262.062V329.494Z" fill="#D6D8E0"/>
<path d="M303.66 339.715H197.838V345.555H303.66V339.715Z" fill="#D6D8E0"/>
<path d="M303.66 349.936H197.838V355.776H303.66V349.936Z" fill="#D6D8E0"/>
<path d="M175.452 383.516H144.798V414.18H175.452V383.516Z" fill="#D6D8E0"/>
<path d="M262.296 385.707H198.072V391.547H262.296V385.707Z" fill="#D6D8E0"/>
<path d="M303.894 395.928H198.072V401.768H303.894V395.928Z" fill="#D6D8E0"/>
<path d="M303.894 406.149H198.072V411.989H303.894V406.149Z" fill="#D6D8E0"/>
<path d="M354.276 138.702H93.006V203.672H354.276V138.702Z" fill="url(#paint1_linear)"/>
<path d="M353.544 140.167H94.464V202.219H353.544V140.167Z" fill="white"/>
<path d="M175.11 155.861H144.456V186.525H175.11V155.861Z" fill="#FF962B"/>
<g opacity="0.5">
<path opacity="0.5" d="M261.96 158.052H197.736V163.892H261.96V158.052Z" fill="#FF962B"/>
<path opacity="0.5" d="M303.558 168.273H197.736V174.113H303.558V168.273Z" fill="#FF962B"/>
<path opacity="0.5" d="M303.558 178.494H197.736V184.334H303.558V178.494Z" fill="#FF962B"/>
</g>
<path d="M186.108 195.413C184.476 193.799 181.764 193.265 179.802 194.453C178.278 195.371 177.438 197.082 176.67 198.696C175.548 201.097 173.904 203.342 173.4 205.935C172.014 213.083 166.326 218.634 164.046 225.542C163.23 228.009 162.846 230.656 161.556 232.907C160.946 233.892 160.264 234.831 159.516 235.716C156.564 239.44 153.953 243.424 151.716 247.617C150.42 247.869 149.268 248.968 148.164 249.826C146.749 250.926 145.111 251.702 143.364 252.101C142.661 252.183 141.987 252.43 141.396 252.821C140.568 253.511 140.454 254.753 139.782 255.588C139.294 256.134 138.674 256.548 137.982 256.788C137.982 256.578 137.952 256.368 137.946 256.152C137.916 255.041 137.898 253.925 137.898 252.809C139.833 250.53 140.892 247.636 140.885 244.646C140.879 241.656 139.807 238.766 137.862 236.496C137.909 234.758 138.141 233.03 138.552 231.34C138.762 230.518 138.732 229.51 138.066 228.976C137.736 228.717 137.31 228.621 136.956 228.375C136.457 227.953 136.049 227.435 135.756 226.851C134.867 225.591 133.559 224.69 132.066 224.308C130.572 223.926 128.992 224.089 127.608 224.768C125.442 225.909 124.128 228.189 122.208 229.738C121.224 230.53 120.09 231.124 119.106 231.922C117.137 233.641 115.737 235.919 115.092 238.452C114.461 240.976 114.095 243.559 114 246.159C113.897 246.938 113.928 247.73 114.09 248.499C114.284 249.144 114.582 249.752 114.972 250.3C116.801 253.277 119.37 255.727 122.43 257.412C122.442 257.566 122.442 257.721 122.43 257.874C122.43 258.114 122.352 258.348 122.298 258.589L121.95 258.493C120.666 258.204 119.28 258.24 118.128 257.598C116.16 256.494 115.566 253.799 113.682 252.563C113.522 252.459 113.353 252.368 113.178 252.293C113.045 248.879 112.393 245.505 111.246 242.288C110.694 240.751 110.016 239.185 110.1 237.546C110.172 236.028 110.898 234.629 111.546 233.255C113.808 228.513 115.392 223.484 116.946 218.472C117.942 215.323 118.942 212.172 119.946 209.019C120.923 208.294 121.808 207.451 122.58 206.511C124.181 204.646 125.238 202.377 125.634 199.951C125.824 198.74 125.773 197.504 125.484 196.313C125.195 195.122 124.673 194.001 123.948 193.013C123.628 192.54 123.211 192.142 122.725 191.844C122.238 191.546 121.694 191.355 121.128 191.284C120.63 191.295 120.14 191.407 119.688 191.613C119.235 191.82 118.829 192.116 118.494 192.484C117.499 193.619 116.733 194.936 116.238 196.362C115.254 198.684 114.258 201.097 114.354 203.618C114.432 205.706 115.212 208.041 113.994 209.74C110.004 215.303 106.992 221.701 103.83 227.787C103.031 229.241 102.345 230.754 101.778 232.313C101.013 234.841 100.651 237.474 100.704 240.115C100.674 245.066 101.352 249.994 102.024 254.903C102.33 257.118 102.72 259.471 103.77 261.385C103.082 263.758 102.721 266.213 102.696 268.684C102.668 269.254 102.758 269.824 102.96 270.358C103.313 270.979 103.76 271.542 104.286 272.027C104.989 272.826 105.514 273.766 105.824 274.785C106.135 275.803 106.224 276.877 106.086 277.932C105.91 279.921 106.091 281.925 106.62 283.85C107.82 289.18 109.02 294.503 109.98 299.875C110.208 300.874 110.285 301.902 110.208 302.924C110.022 304.376 109.218 305.757 109.392 307.215C109.564 307.891 109.692 308.576 109.776 309.268C109.737 309.796 109.615 310.314 109.416 310.804C108.048 314.784 104.37 323.906 104.412 328.12L105.372 327.892C104.406 333.359 102.144 338.587 100.956 344.036C100.132 348.007 99.7576 352.058 99.84 356.112C99.9191 357.933 99.887 359.757 99.744 361.574C99.558 363.188 99.144 364.767 98.916 366.375C98.6579 368.532 98.5616 370.704 98.628 372.875C98.5655 376.287 98.7661 379.698 99.228 383.078C100.146 388.84 98.538 394.566 98.1 400.382C97.878 404.45 97.4172 408.503 96.72 412.517C96.39 414.21 95.976 415.89 95.748 417.601C95.076 422.678 96.054 427.912 94.998 432.923C94.5 435.27 93.612 437.905 94.92 439.91C95.334 440.54 95.928 441.032 96.378 441.638C96.6245 441.925 96.7927 442.271 96.8663 442.642C96.9398 443.013 96.9163 443.397 96.798 443.757C96.54 444.309 95.94 444.669 95.79 445.257C95.55 446.182 96.516 446.938 97.38 447.334L97.626 447.43C97.5696 447.746 97.5822 448.071 97.663 448.381C97.7437 448.692 97.8908 448.982 98.094 449.23C98.6074 449.715 99.245 450.047 99.936 450.191L111.264 453.624C113.79 454.392 116.538 455.148 119.064 454.524C119.121 454.884 119.277 455.22 119.514 455.496C120.027 455.981 120.665 456.313 121.356 456.457L132.6 459.866C135.492 460.742 138.666 461.606 141.444 460.418C142.24 460.09 142.938 459.563 143.472 458.887C143.913 458.239 144.206 457.501 144.331 456.726C144.455 455.951 144.408 455.158 144.192 454.404C144.051 453.636 143.669 452.934 143.1 452.399C142.33 451.864 141.421 451.566 140.484 451.541C139.684 451.517 138.901 451.312 138.192 450.941C137.978 450.802 137.799 450.615 137.67 450.395C138.318 449.755 138.946 449.09 139.554 448.402C139.062 448.234 138.888 447.526 138.84 447.01C138.126 439.363 141.006 431.891 142.098 424.293C142.65 420.481 142.746 416.616 142.386 412.781C142.254 411.335 142.056 409.894 141.996 408.442C141.714 400.88 145.326 393.606 145.2 386.037C145.14 382.496 147 379.003 147.906 375.576C148.698 372.539 148.722 369.358 148.74 366.213L148.884 341.45C148.884 338.101 148.884 334.674 147.816 331.511C147.277 329.751 147.129 327.895 147.384 326.073C150.438 324.723 153.33 322.724 156.594 323.072C157.464 320.761 156.432 313.061 155.616 310.726C152.408 301.541 151.785 291.65 153.816 282.134C154.554 278.719 153.54 275.088 154.362 271.685C154.513 270.886 154.816 270.124 155.256 269.44C155.479 269.099 155.785 268.821 156.145 268.63C156.505 268.44 156.907 268.345 157.314 268.354C157.314 266.271 157.272 264.152 157.134 262.04C158.459 260.957 159.589 259.656 160.476 258.192C162.276 255.192 163.302 251.812 164.544 248.547C166.746 242.786 169.752 237.378 172.278 231.742C174.804 226.107 175.05 219.943 177.078 214.109C178.195 210.896 180.504 208.236 183.528 206.679C184.728 206.079 186.006 205.646 186.876 204.662C187.534 203.842 187.939 202.847 188.04 201.799C188.227 200.658 188.15 199.489 187.815 198.382C187.48 197.275 186.896 196.259 186.108 195.413ZM115.908 443.367C116.154 443.097 116.394 442.826 116.622 442.532C115.866 442.412 114.942 441.86 114.924 441.092C114.978 440.322 115.144 439.564 115.416 438.841C115.771 437.538 115.828 436.172 115.584 434.844C115.416 433.914 115.104 433.044 114.912 432.095C114.729 431.067 114.609 430.029 114.552 428.986C114.228 425.244 113.496 421.549 112.368 417.967C111.282 414.492 112.77 410.975 113.154 407.356C113.34 405.639 113.256 403.869 113.856 402.254C114.21 401.294 114.792 400.454 115.146 399.481C115.968 397.255 115.482 394.776 114.978 392.453C118.53 386.013 119.706 378.331 121.044 371.081C121.796 367.011 122.548 362.944 123.3 358.879C123.63 357.078 123.996 355.182 125.1 353.729C126.269 359.116 126.728 364.632 126.468 370.138C126.33 371.737 126.35 373.345 126.528 374.94C126.804 376.686 127.53 378.337 127.95 380.053C128.886 383.841 128.34 387.82 128.55 391.715C128.628 393.287 128.832 394.86 128.898 396.432C129.192 403.388 126.864 410.153 124.566 416.725C123.156 420.752 122.844 425.331 122.166 429.55C121.53 433.59 120.9 437.635 120.576 441.71C120.48 442.952 120.402 444.231 120.252 445.491C119.866 445.406 119.475 445.344 119.082 445.305C118.282 445.281 117.499 445.076 116.79 444.705C116.366 444.36 116.058 443.893 115.908 443.367Z" fill="url(#paint2_linear)"/>
<path d="M140.496 451.601C141.432 451.628 142.34 451.924 143.112 452.453C143.679 452.984 144.062 453.682 144.204 454.446C144.419 455.197 144.467 455.985 144.342 456.756C144.218 457.527 143.925 458.261 143.484 458.905C142.949 459.576 142.251 460.097 141.456 460.418C138.678 461.618 135.504 460.748 132.612 459.878L121.284 456.463C120.593 456.321 119.956 455.991 119.442 455.508C119.131 455.089 118.959 454.583 118.95 454.061C118.941 453.538 119.097 453.027 119.394 452.597C120.003 451.751 120.833 451.089 121.794 450.683C125.322 448.966 129.294 448.57 133.194 448.498C134.634 448.468 136.05 448.156 137.028 449.266C137.544 449.867 137.454 450.503 138.228 451.013C138.929 451.379 139.705 451.58 140.496 451.601Z" fill="#3F3D56"/>
<path d="M119.094 445.365C120.03 445.386 120.939 445.68 121.71 446.211C122.274 446.745 122.656 447.442 122.802 448.204C123.018 448.955 123.065 449.743 122.941 450.514C122.816 451.285 122.523 452.019 122.082 452.663C121.548 453.336 120.849 453.859 120.054 454.182C117.276 455.382 114.102 454.506 111.21 453.636L99.882 450.221C99.1906 450.082 98.5522 449.751 98.04 449.266C97.7286 448.847 97.5566 448.341 97.5479 447.819C97.5393 447.297 97.6946 446.785 97.992 446.356C98.5999 445.508 99.4306 444.845 100.392 444.441C103.92 442.724 107.886 442.328 111.762 442.256C113.196 442.256 114.618 441.914 115.596 443.025C116.112 443.625 116.022 444.267 116.796 444.771C117.507 445.141 118.293 445.344 119.094 445.365Z" fill="#3F3D56"/>
<path d="M128.934 322.394C122.26 321.723 115.547 321.534 108.846 321.83C108.404 321.824 107.964 321.893 107.544 322.034C106.068 322.634 105.84 324.567 105.696 326.151C105.132 332.555 102.306 338.527 100.896 344.811C100.071 348.757 99.6968 352.784 99.78 356.814C99.8584 358.615 99.8263 360.419 99.684 362.216C99.498 363.825 99.084 365.391 98.856 367.017C98.598 369.16 98.5017 371.319 98.568 373.475C98.5062 376.861 98.7068 380.246 99.168 383.601C100.086 389.326 98.478 395.004 98.04 400.79C97.8177 404.833 97.3569 408.859 96.66 412.847C96.33 414.528 95.916 416.196 95.688 417.895C95.016 422.942 95.994 428.146 94.938 433.122C94.44 435.45 93.552 438.067 94.86 440.06C95.274 440.69 95.868 441.176 96.318 441.776C96.564 442.061 96.732 442.405 96.8056 442.774C96.8792 443.143 96.856 443.525 96.738 443.883C96.48 444.429 95.88 444.789 95.73 445.371C95.49 446.29 96.456 447.046 97.32 447.436C103.83 450.371 112.224 448.3 116.616 442.664C115.86 442.544 114.936 441.998 114.918 441.236C114.972 440.47 115.138 439.716 115.41 438.997C115.766 437.703 115.823 436.344 115.578 435.024C115.41 434.106 115.098 433.224 114.906 432.293C114.723 431.273 114.603 430.243 114.546 429.208C114.222 425.49 113.49 421.819 112.362 418.261C111.276 414.81 112.764 411.317 113.148 407.716C113.334 406.017 113.25 404.253 113.85 402.65C114.204 401.696 114.786 400.85 115.14 399.895C115.962 397.681 115.476 395.226 114.972 392.915C118.524 386.511 119.7 378.883 121.038 371.681C121.79 367.64 122.542 363.598 123.294 359.557C123.624 357.757 123.99 355.89 125.094 354.444C126.263 359.796 126.723 365.278 126.462 370.751C126.326 372.327 126.346 373.913 126.522 375.486C126.798 377.221 127.524 378.859 127.944 380.57C128.88 384.327 128.334 388.282 128.544 392.153C128.622 393.714 128.826 395.274 128.892 396.841C129.186 403.749 126.858 410.471 124.56 416.995C123.15 420.998 122.838 425.547 122.16 429.737C121.524 433.752 120.894 437.767 120.57 441.818C120.276 445.539 120.15 449.567 117.834 452.489C119.946 453.864 122.136 455.262 124.608 455.736C127.497 456.188 130.453 455.617 132.966 454.122C135.46 452.626 137.69 450.728 139.566 448.504C139.074 448.336 138.9 447.628 138.852 447.118C138.138 439.525 141.018 432.113 142.11 424.551C142.662 420.763 142.758 416.923 142.398 413.111C142.266 411.677 142.068 410.249 142.008 408.808C141.726 401.294 145.338 394.062 145.212 386.547C145.152 383.03 147.012 379.555 147.918 376.152C148.71 373.151 148.734 369.976 148.752 366.855L148.896 342.248C148.896 338.917 148.896 335.514 147.828 332.369C146.508 328.594 148.014 324.248 148.242 320.257C142.008 322.227 135.448 322.953 128.934 322.394Z" fill="#3F3D56"/>
<path d="M150.33 251.698C152.852 246.539 155.932 241.673 159.516 237.186C160.263 236.309 160.945 235.378 161.556 234.401C162.846 232.169 163.23 229.534 164.046 227.085C166.326 220.219 172.014 214.703 173.4 207.603C173.904 205.028 175.548 202.802 176.67 200.401C177.438 198.792 178.278 197.1 179.802 196.2C181.764 194.999 184.476 195.557 186.108 197.16C186.893 197.997 187.475 199.003 187.809 200.101C188.143 201.199 188.22 202.359 188.034 203.492C187.936 204.534 187.531 205.525 186.87 206.337C186 207.315 184.698 207.759 183.522 208.347C180.502 209.882 178.191 212.525 177.072 215.724C175.068 221.521 174.816 227.655 172.272 233.243C169.728 238.831 166.74 244.202 164.538 249.922C163.296 253.169 162.294 256.524 160.47 259.525C158.646 262.526 155.778 265.04 152.334 265.491C152.339 263.322 151.998 261.166 151.326 259.105C150.6 256.722 149.238 253.907 150.33 251.698Z" fill="#A0616A"/>
<path d="M113.178 256.176C113.331 251.933 112.671 247.699 111.234 243.704C110.682 242.174 110.004 240.619 110.088 238.993C110.16 237.486 110.886 236.094 111.534 234.731C113.796 230.02 115.38 225.02 116.934 220.039L119.934 210.652C120.909 209.931 121.794 209.095 122.568 208.161C124.166 206.311 125.223 204.056 125.622 201.643C125.812 200.439 125.761 199.21 125.471 198.026C125.182 196.842 124.66 195.727 123.936 194.747C123.615 194.277 123.198 193.881 122.711 193.586C122.225 193.291 121.681 193.104 121.116 193.037C120.618 193.045 120.127 193.156 119.674 193.363C119.221 193.569 118.815 193.867 118.482 194.237C117.488 195.363 116.722 196.672 116.226 198.09C115.242 200.395 114.246 202.796 114.342 205.292C114.42 207.369 115.2 209.686 113.982 211.372C109.992 216.9 106.98 223.256 103.818 229.3C103.019 230.743 102.333 232.246 101.766 233.795C101.001 236.311 100.638 238.932 100.692 241.561C100.662 246.483 101.34 251.374 102.012 256.254C102.432 259.303 102.996 262.628 105.306 264.656C107.712 261.601 110.124 258.589 113.178 256.176Z" fill="#A0616A"/>
<path d="M128.448 258.523C135.324 258.523 140.898 252.947 140.898 246.069C140.898 239.191 135.324 233.615 128.448 233.615C121.572 233.615 115.998 239.191 115.998 246.069C115.998 252.947 121.572 258.523 128.448 258.523Z" fill="#A0616A"/>
<path d="M122.4 259.183C122.1 261.439 120.894 263.45 119.718 265.395C119.004 266.595 118.104 267.873 116.718 268.005C120.322 269.902 124.109 271.426 128.022 272.555C129.354 273.001 130.751 273.226 132.156 273.221C133.345 273.132 134.509 272.834 135.594 272.339C137.968 271.298 140.073 269.73 141.751 267.754C143.429 265.779 144.635 263.447 145.278 260.935C143.73 260.977 142.182 260.858 140.658 260.581C139.806 260.425 138.888 260.173 138.39 259.471C138.044 258.86 137.882 258.161 137.922 257.46C137.862 255.384 137.862 253.307 137.922 251.23C134.863 251.033 131.795 251.41 128.874 252.341C127.674 252.731 126.474 253.205 125.244 253.511C124.488 253.697 122.406 253.511 121.848 253.949C121.002 254.615 122.622 257.652 122.4 259.183Z" fill="#A0616A"/>
<path d="M127.89 266.751C127.752 265.115 127.102 263.563 126.034 262.316C124.966 261.069 123.533 260.189 121.938 259.801C120.654 259.519 119.268 259.549 118.116 258.913C116.148 257.814 115.554 255.137 113.67 253.907C111.786 252.677 109.098 253.361 107.454 254.921C105.81 256.482 104.976 258.691 104.304 260.851C103.298 263.78 102.753 266.848 102.69 269.944C102.662 270.512 102.752 271.08 102.954 271.612C103.309 272.231 103.756 272.792 104.28 273.275C104.983 274.065 105.507 274.997 105.818 276.008C106.128 277.019 106.218 278.084 106.08 279.133C105.904 281.112 106.085 283.106 106.614 285.021C107.814 290.308 109.014 295.602 109.974 300.937C110.199 301.921 110.276 302.932 110.202 303.938C110.016 305.379 109.212 306.753 109.386 308.194C109.558 308.867 109.686 309.55 109.77 310.24C109.731 310.762 109.609 311.275 109.41 311.759C108.042 315.72 104.364 324.783 104.406 328.966C110.796 327.327 120.216 326.961 126.81 326.937C128.627 326.912 130.444 326.992 132.252 327.177C136.59 327.64 141.03 328.906 145.236 327.736C149.136 326.649 152.598 323.534 156.636 323.93C157.506 321.632 156.474 313.979 155.658 311.663C152.45 302.541 151.827 292.71 153.858 283.256C154.596 279.859 153.582 276.258 154.404 272.879C154.554 272.084 154.858 271.325 155.298 270.646C155.522 270.307 155.828 270.029 156.188 269.84C156.548 269.651 156.95 269.557 157.356 269.566C157.431 264.14 156.928 258.722 155.856 253.403C155.454 251.512 154.62 249.28 152.718 248.956C151.002 248.668 149.556 250.114 148.182 251.182C146.764 252.272 145.126 253.042 143.382 253.439C142.679 253.52 142.005 253.764 141.414 254.153C140.586 254.837 140.472 256.074 139.8 256.908C138.6 258.402 135.918 258.27 135.066 259.993C134.874 260.507 134.722 261.034 134.61 261.571C134.208 262.592 133.523 263.477 132.636 264.122C131.295 265.376 129.664 266.279 127.89 266.751Z" fill="#FF962B"/>
<path d="M138.564 232.829C138.774 232.006 138.744 231.028 138.078 230.476C137.748 230.218 137.322 230.122 136.968 229.876C136.469 229.456 136.061 228.94 135.768 228.357C134.87 227.103 133.557 226.208 132.062 225.831C130.567 225.454 128.987 225.62 127.602 226.299C125.436 227.433 124.122 229.702 122.202 231.238C121.218 232.03 120.084 232.619 119.1 233.405C117.133 235.111 115.733 237.376 115.086 239.899C114.457 242.409 114.093 244.977 114 247.563C113.898 248.339 113.928 249.126 114.09 249.892C114.286 250.526 114.584 251.124 114.972 251.662C116.946 254.663 119.562 257.394 122.832 258.937C126.102 260.479 130.08 260.737 133.308 259.123C133.632 258.987 133.91 258.762 134.112 258.474C134.297 258.037 134.339 257.551 134.232 257.088C134.061 255.255 134.426 253.412 135.282 251.782C135.882 250.582 136.776 249.55 137.262 248.301C137.703 246.91 137.894 245.451 137.826 243.992C137.874 240.229 137.616 236.466 138.564 232.829Z" fill="#2D293D"/>
<path d="M174.984 156.227H144.33V186.891H174.984V156.227Z" fill="#FF962B"/>
<path d="M163.8 182.347C163.356 183.204 162.619 183.873 161.724 184.232C161.195 184.426 160.637 184.531 160.074 184.544C159.465 184.589 158.854 184.513 158.274 184.322C157.502 184.018 156.839 183.489 156.372 182.804C155.911 182.118 155.539 181.376 155.268 180.595C155.086 180.205 155.009 179.775 155.046 179.346C155.281 179.318 155.508 179.243 155.713 179.127C155.919 179.01 156.1 178.855 156.246 178.668C156.332 178.481 156.38 178.278 156.385 178.071C156.39 177.865 156.353 177.66 156.276 177.468C156.24 177.348 156.204 177.234 156.162 177.126C156.072 176.862 155.76 176.364 155.976 176.141C156.192 175.919 156.696 175.925 156.894 175.835C157.481 175.485 158.107 175.205 158.76 175.001C159.352 174.922 159.953 174.961 160.53 175.115C160.609 175.128 160.684 175.157 160.752 175.199C160.828 175.262 160.884 175.345 160.914 175.439C161.082 175.847 161.178 176.298 161.31 176.718C161.425 177.158 161.653 177.562 161.97 177.888C162.244 178.121 162.554 178.307 162.888 178.44L163.692 178.806C163.833 178.862 163.962 178.946 164.07 179.052C164.173 179.197 164.235 179.367 164.25 179.545C164.399 180.503 164.241 181.484 163.8 182.347Z" fill="#A0616A"/>
<path opacity="0.1" d="M161.304 176.736C160.665 177.399 159.825 177.832 158.915 177.968C158.004 178.104 157.074 177.934 156.27 177.486C156.234 177.366 156.198 177.252 156.156 177.144C156.066 176.88 155.754 176.382 155.97 176.159C156.186 175.937 156.69 175.943 156.888 175.853C157.475 175.503 158.101 175.223 158.754 175.019C159.346 174.94 159.947 174.979 160.524 175.133C160.603 175.146 160.678 175.175 160.746 175.217C160.822 175.28 160.878 175.363 160.908 175.457C161.076 175.883 161.172 176.316 161.304 176.736Z" fill="black"/>
<path d="M158.304 177.834C160.604 177.834 162.468 175.969 162.468 173.669C162.468 171.368 160.604 169.503 158.304 169.503C156.004 169.503 154.14 171.368 154.14 173.669C154.14 175.969 156.004 177.834 158.304 177.834Z" fill="#A0616A"/>
<path d="M170.934 186.885H151.338C150.738 185.546 150.198 184.202 149.592 182.864C149.657 182.545 149.777 182.24 149.946 181.963C150.033 181.828 150.151 181.716 150.292 181.638C150.432 181.559 150.589 181.516 150.75 181.513C150.924 181.513 151.122 181.579 151.248 181.453C151.374 181.327 151.332 181.225 151.422 181.141C151.512 181.057 151.728 181.057 151.896 181.069C152.076 181.075 152.255 181.036 152.416 180.955C152.578 180.874 152.717 180.755 152.82 180.607C152.884 180.495 152.963 180.392 153.054 180.301C153.212 180.224 153.383 180.179 153.558 180.169C154.044 180.061 154.332 179.569 154.698 179.262C154.786 179.163 154.901 179.092 155.029 179.056C155.156 179.021 155.292 179.024 155.418 179.064C155.477 179.095 155.528 179.138 155.568 179.19C155.667 179.342 155.734 179.511 155.766 179.689C155.983 180.685 156.536 181.577 157.332 182.215C157.755 182.535 158.244 182.756 158.763 182.862C159.283 182.968 159.819 182.957 160.334 182.829C160.848 182.7 161.327 182.458 161.736 182.121C162.145 181.783 162.473 181.358 162.696 180.877C162.986 180.152 163.152 179.383 163.188 178.602C163.188 178.56 163.188 178.536 163.188 178.5C163.432 178.44 163.687 178.434 163.933 178.482C164.18 178.531 164.413 178.633 164.616 178.782C165.014 179.087 165.44 179.355 165.888 179.581C166.422 179.791 167.088 179.791 167.454 180.181C167.61 180.337 167.718 180.553 167.916 180.649C168.039 180.697 168.168 180.727 168.3 180.739C168.635 180.829 168.945 180.995 169.206 181.224C169.467 181.453 169.672 181.739 169.806 182.059C170.24 183.022 170.524 184.047 170.646 185.096L170.934 186.885Z" fill="#F86D70"/>
<path d="M155.43 166.911C155.14 167.146 154.894 167.43 154.704 167.751C154.347 168.341 153.848 168.832 153.252 169.179C153.002 169.267 152.775 169.408 152.586 169.593C152.493 169.734 152.434 169.894 152.412 170.062C152.29 170.644 152.228 171.237 152.226 171.832C152.204 172.132 152.253 172.432 152.37 172.708C152.49 172.961 152.718 173.177 152.76 173.453C152.769 173.671 152.744 173.89 152.688 174.101C152.66 174.212 152.666 174.328 152.706 174.435C152.745 174.543 152.817 174.635 152.91 174.701C153.019 174.74 153.131 174.766 153.246 174.779C153.846 174.911 154.05 175.619 154.14 176.202C154.344 176.202 154.434 175.955 154.482 175.763L155.082 172.973C155.154 172.672 155.262 172.318 155.568 172.216C155.778 172.171 155.994 172.171 156.204 172.216C157.032 172.288 157.728 171.646 158.538 171.466C158.799 171.417 159.065 171.401 159.33 171.418C159.966 171.418 160.71 171.712 160.848 172.306C160.848 172.402 160.884 172.522 160.974 172.57C161.066 172.597 161.164 172.597 161.256 172.57C161.658 172.528 161.898 172.985 162.018 173.357L162.438 174.719C162.504 174.923 162.612 175.169 162.834 175.193C162.936 175.193 163.034 175.155 163.11 175.088C163.186 175.021 163.235 174.928 163.248 174.827C163.257 174.624 163.229 174.42 163.164 174.227C162.966 173.339 163.272 172.426 163.458 171.532C163.644 170.638 163.674 169.612 163.05 168.921C162.822 168.675 162.522 168.489 162.312 168.225C162.102 167.961 162.006 167.679 161.802 167.433C160.987 166.718 159.97 166.273 158.892 166.16C157.689 166.054 156.481 166.316 155.43 166.911Z" fill="#3F3D56"/>
<g opacity="0.1">
<path opacity="0.1" d="M162.858 174.545C162.636 174.545 162.528 174.275 162.462 174.071L162.042 172.708C161.922 172.336 161.682 171.88 161.28 171.916C161.188 171.943 161.09 171.943 160.998 171.916C160.908 171.868 160.896 171.754 160.872 171.652C160.734 171.052 159.99 170.794 159.354 170.764C159.089 170.746 158.822 170.764 158.562 170.818C157.752 170.992 157.056 171.634 156.228 171.562C156.018 171.523 155.802 171.523 155.592 171.562C155.286 171.67 155.178 172.018 155.106 172.324C154.896 173.255 154.692 174.185 154.506 175.109C154.458 175.301 154.368 175.535 154.164 175.547C154.074 174.947 153.87 174.257 153.27 174.125C153.155 174.115 153.042 174.088 152.934 174.047C152.854 174.004 152.792 173.934 152.76 173.849C152.76 173.933 152.724 174.023 152.712 174.107C152.684 174.218 152.69 174.334 152.73 174.441C152.769 174.549 152.841 174.641 152.934 174.707C153.043 174.746 153.155 174.772 153.27 174.785C153.87 174.917 154.074 175.625 154.164 176.208C154.368 176.208 154.458 175.961 154.506 175.769C154.716 174.839 154.92 173.909 155.106 172.979C155.178 172.678 155.286 172.324 155.592 172.222C155.802 172.177 156.018 172.177 156.228 172.222C157.056 172.294 157.752 171.652 158.562 171.472C158.823 171.423 159.089 171.407 159.354 171.424C159.99 171.424 160.734 171.718 160.872 172.312C160.872 172.408 160.908 172.528 160.998 172.576C161.09 172.603 161.188 172.603 161.28 172.576C161.682 172.534 161.922 172.991 162.042 173.363L162.462 174.725C162.528 174.929 162.636 175.175 162.858 175.199C162.96 175.199 163.058 175.161 163.134 175.094C163.21 175.027 163.259 174.934 163.272 174.833C163.285 174.671 163.264 174.507 163.212 174.353C163.178 174.416 163.126 174.467 163.063 174.501C163 174.535 162.929 174.55 162.858 174.545Z" fill="black"/>
<path opacity="0.1" d="M152.76 172.816C152.718 172.54 152.49 172.324 152.37 172.072C152.291 171.902 152.244 171.719 152.232 171.532C152.232 171.634 152.232 171.73 152.232 171.832C152.21 172.132 152.259 172.432 152.376 172.708C152.472 172.913 152.64 173.093 152.724 173.309C152.766 173.148 152.779 172.981 152.76 172.816Z" fill="black"/>
<path opacity="0.1" d="M163.482 170.89C163.244 171.667 163.128 172.477 163.14 173.291C163.218 172.7 163.332 172.115 163.482 171.538C163.582 171.097 163.616 170.644 163.584 170.194C163.565 170.428 163.531 170.66 163.482 170.89Z" fill="black"/>
</g>
<path d="M152.904 186.885H148.23C148.436 185.626 148.805 184.399 149.328 183.236C149.369 183.116 149.437 183.007 149.526 182.918C149.545 182.896 149.567 182.878 149.592 182.864C149.73 182.755 149.922 182.713 150.072 182.611C150.222 182.509 150.24 182.401 150.378 182.359C150.897 182.347 151.414 182.433 151.902 182.611C152.04 182.627 152.175 182.661 152.304 182.713C152.608 182.882 152.836 183.162 152.94 183.494C153.336 184.568 153.036 185.732 152.904 186.885Z" fill="#F86D70"/>
</g>
<defs>
<linearGradient id="paint0_linear" x1="223.878" y1="445.317" x2="223.878" y2="-6.07077e-06" gradientUnits="userSpaceOnUse">
<stop stop-color="#808080" stop-opacity="0.25"/>
<stop offset="0.54" stop-color="#808080" stop-opacity="0.12"/>
<stop offset="1" stop-color="#808080" stop-opacity="0.1"/>
</linearGradient>
<linearGradient id="paint1_linear" x1="97478.8" y1="22186.8" x2="97478.8" y2="15153.2" gradientUnits="userSpaceOnUse">
<stop stop-color="#808080" stop-opacity="0.25"/>
<stop offset="0.54" stop-color="#808080" stop-opacity="0.12"/>
<stop offset="1" stop-color="#808080" stop-opacity="0.1"/>
</linearGradient>
<linearGradient id="paint2_linear" x1="39249.3" y1="164539" x2="53949.6" y2="164539" gradientUnits="userSpaceOnUse">
<stop stop-color="#808080" stop-opacity="0.25"/>
<stop offset="0.54" stop-color="#808080" stop-opacity="0.12"/>
<stop offset="1" stop-color="#808080" stop-opacity="0.1"/>
</linearGradient>
<clipPath id="clip0">
<rect width="408" height="461" fill="white"/>
</clipPath>
</defs>
</svg>
